<?xml version="1.0" encoding="utf-8"?>
<!-- Generator: Adobe Illustrator 16.2.1, SVG Export Plug-In . SVG Version: 6.00 Build 0)  -->
<!DOCTYPE svg PUBLIC "-//W3C//DTD SVG 1.1//EN" "http://www.w3.org/Graphics/SVG/1.1/DTD/svg11.dtd">
<svg version="1.1" id="Icons" xmlns="http://www.w3.org/2000/svg" xmlns:xlink="http://www.w3.org/1999/xlink" x="0px" y="0px"
	 width="71.911px" height="43.054px" viewBox="0 0 71.911 43.054" enable-background="new 0 0 71.911 43.054" xml:space="preserve">
<g>
	<path fill="#ffffff" d="M71.911,40.133c0,0-0.026-2.833-5.761-5.381c-2.5-1.11-5.393-1.599-10.173-2.405c-0.259-0.424-0.988-2.388-1.486-4.478
		c0.12,0.009,0.851,0.617,0.983,0.617c0.288,0,0.608-0.02,0.963-0.062c0.186-0.022,2.361-0.45,3.359-0.45
		c0.273,0,0.458,0.031,0.491,0.113c0.042,0.105,0.294,0.145,0.635,0.145c-0.056-0.152-0.1-0.311-0.125-0.477l-0.949-2.386
		c0,0,0.888-1.121,1.501-0.84s1.615-0.265,1.615-0.265c0.66-5.514,1.441-16.738-4.319-21.013c-1.981-1.471-3.668-1.988-5.062-1.989
		c-1.479,0-2.628,0.584-3.449,1.233c-0.821-0.649-1.971-1.233-3.45-1.233c-1.393,0-3.079,0.519-5.06,1.989
		c-5.684,4.218-5.305,15.204-4.828,20.792c0,0,0.422-0.275,1.19,0.511c0.769,0.785,2.151,0.868,2.151,0.868l-0.778,2.79
		l-0.037,0.102c0.328-0.042,0.662-0.128,0.979-0.291c0.052-0.026,0.155-0.038,0.295-0.038c0.845,0,1.822,0.414,2.025,0.438
		c0.354,0.043,0.673,0.062,0.962,0.062c0.371,0,1.903-0.637,2.185-0.695c-0.321,1.318-1.025,3.677-1.615,4.6
		c-0.643,0.113-1.246,0.221-1.823,0.322c3.297,2.475,3.528,4.904,3.534,5.491v4.731v0.118l26.046-0.004V40.133z"/>
	<path fill="#ffffff" d="M37.685,32.824c-2.835-1.262-6.178-3.695-12.204-4.447c1.821-1.402,2.674-4.291,4.226-8.244
		c0.021-0.057,0.043-0.118,0.065-0.177c0.13,0.023,0.262,0.037,0.389,0.037c0.212,0,0.412-0.039,0.574-0.142
		c0.725-0.453,1.162-2.926,1.177-4.13c0.017-1.509-0.61-1.633-0.817-1.633c-0.041,0-0.064,0.006-0.064,0.006
		s-0.019-0.006-0.046-0.013c0.004-0.145,0.012-0.288,0.012-0.433c0-1.632,0.331-4.389-0.101-5.923
		c-0.652-2.319-0.52-3.19-1.707-4.448c-1.685-1.785-4.129-2.545-5.1-2.545C23.564,0.733,21.433,0,19.56,0
		c-0.533,0-1.046,0.059-1.494,0.212c-1.956,0.67-0.871,2.663-2.47,2.664c-1.726,0-2.507,2.551-3.155,4.865
		c-0.419,1.494-0.097,4.214-0.097,5.908c0,0.142,0.008,0.283,0.013,0.425c-0.044,0.011-0.074,0.021-0.074,0.021
		s-0.024-0.006-0.065-0.006c-0.207,0-0.834,0.124-0.818,1.633c0.015,1.204,0.454,3.677,1.178,4.13
		c0.162,0.103,0.362,0.143,0.576,0.143c0.135,0,0.275-0.017,0.414-0.042c0.024,0.063,0.048,0.131,0.072,0.193
		c1.568,3.985,2.369,6.857,4.206,8.245c-5.966,0.77-9.288,3.187-12.104,4.443C0.028,35.381,0,38.204,0,38.204v4.737l43.446-0.006
		v-4.731C43.446,38.204,43.42,35.372,37.685,32.824z"/>
</g>
</svg>
